<mxfile host="app.diagrams.net" agent="Mozilla/5.0 (Windows NT 10.0; Win64; x64; rv:130.0) Gecko/20100101 Firefox/130.0" version="24.7.12">
  <diagram name="PÃ¡gina-1" id="thJgeR5AR-RD1IFN1DbU">
    <mxGraphModel dx="890" dy="414" grid="1" gridSize="10" guides="1" tooltips="1" connect="1" arrows="1" fold="1" page="1" pageScale="1" pageWidth="827" pageHeight="1169" math="0" shadow="0">
      <root>
        <mxCell id="0" />
        <mxCell id="1" parent="0" />
        <mxCell id="yKtc5BlLjvsNmvr8CvIh-1" value="Profesor/a " style="rounded=0;whiteSpace=wrap;html=1;fillColor=#1ba1e2;fontColor=#ffffff;strokeColor=#006EAF;" vertex="1" parent="1">
          <mxGeometry x="260" y="200" width="120" height="60" as="geometry" />
        </mxCell>
        <mxCell id="yKtc5BlLjvsNmvr8CvIh-2" value="DNI" style="ellipse;whiteSpace=wrap;html=1;fillColor=none;strokeColor=#0e8088;" vertex="1" parent="1">
          <mxGeometry x="40" y="80" width="80" height="50" as="geometry" />
        </mxCell>
        <mxCell id="yKtc5BlLjvsNmvr8CvIh-3" value="Nombre" style="ellipse;whiteSpace=wrap;html=1;fillColor=none;strokeColor=#0e8088;" vertex="1" parent="1">
          <mxGeometry x="40" y="150" width="100" height="60" as="geometry" />
        </mxCell>
        <mxCell id="yKtc5BlLjvsNmvr8CvIh-4" value="Telefono" style="ellipse;whiteSpace=wrap;html=1;fillColor=none;strokeColor=#0e8088;" vertex="1" parent="1">
          <mxGeometry x="40" y="240" width="100" height="60" as="geometry" />
        </mxCell>
        <mxCell id="yKtc5BlLjvsNmvr8CvIh-5" value="Direccion" style="ellipse;whiteSpace=wrap;html=1;fillColor=none;strokeColor=#0e8088;" vertex="1" parent="1">
          <mxGeometry x="40" y="320" width="100" height="60" as="geometry" />
        </mxCell>
        <mxCell id="yKtc5BlLjvsNmvr8CvIh-6" value="" style="endArrow=none;html=1;rounded=0;entryX=0;entryY=0.5;entryDx=0;entryDy=0;exitX=0.94;exitY=0.283;exitDx=0;exitDy=0;exitPerimeter=0;" edge="1" parent="1" source="yKtc5BlLjvsNmvr8CvIh-5" target="yKtc5BlLjvsNmvr8CvIh-1">
          <mxGeometry width="50" height="50" relative="1" as="geometry">
            <mxPoint x="140" y="330" as="sourcePoint" />
            <mxPoint x="190" y="280" as="targetPoint" />
          </mxGeometry>
        </mxCell>
        <mxCell id="yKtc5BlLjvsNmvr8CvIh-7" value="" style="endArrow=none;html=1;rounded=0;exitX=0.95;exitY=0.317;exitDx=0;exitDy=0;exitPerimeter=0;entryX=0;entryY=0.5;entryDx=0;entryDy=0;" edge="1" parent="1" source="yKtc5BlLjvsNmvr8CvIh-4" target="yKtc5BlLjvsNmvr8CvIh-1">
          <mxGeometry width="50" height="50" relative="1" as="geometry">
            <mxPoint x="150" y="270" as="sourcePoint" />
            <mxPoint x="220" y="240" as="targetPoint" />
          </mxGeometry>
        </mxCell>
        <mxCell id="yKtc5BlLjvsNmvr8CvIh-9" value="" style="endArrow=none;html=1;rounded=0;exitX=1;exitY=0.5;exitDx=0;exitDy=0;entryX=0;entryY=0.5;entryDx=0;entryDy=0;" edge="1" parent="1" source="yKtc5BlLjvsNmvr8CvIh-3" target="yKtc5BlLjvsNmvr8CvIh-1">
          <mxGeometry width="50" height="50" relative="1" as="geometry">
            <mxPoint x="170" y="290" as="sourcePoint" />
            <mxPoint x="220" y="240" as="targetPoint" />
          </mxGeometry>
        </mxCell>
        <mxCell id="yKtc5BlLjvsNmvr8CvIh-10" value="" style="endArrow=none;html=1;rounded=0;exitX=1;exitY=0.5;exitDx=0;exitDy=0;" edge="1" parent="1" source="yKtc5BlLjvsNmvr8CvIh-2">
          <mxGeometry width="50" height="50" relative="1" as="geometry">
            <mxPoint x="170" y="290" as="sourcePoint" />
            <mxPoint x="260" y="230" as="targetPoint" />
          </mxGeometry>
        </mxCell>
        <mxCell id="yKtc5BlLjvsNmvr8CvIh-11" value="Imparten" style="rhombus;whiteSpace=wrap;html=1;fillColor=none;fontColor=#ffffff;strokeColor=#001DBC;" vertex="1" parent="1">
          <mxGeometry x="440" y="200" width="110" height="80" as="geometry" />
        </mxCell>
        <mxCell id="yKtc5BlLjvsNmvr8CvIh-12" value="" style="endArrow=none;html=1;rounded=0;exitX=0.992;exitY=0.65;exitDx=0;exitDy=0;exitPerimeter=0;" edge="1" parent="1" source="yKtc5BlLjvsNmvr8CvIh-1">
          <mxGeometry width="50" height="50" relative="1" as="geometry">
            <mxPoint x="390" y="240" as="sourcePoint" />
            <mxPoint x="440" y="240" as="targetPoint" />
          </mxGeometry>
        </mxCell>
        <mxCell id="yKtc5BlLjvsNmvr8CvIh-13" value="1" style="text;html=1;align=center;verticalAlign=middle;whiteSpace=wrap;rounded=0;" vertex="1" parent="1">
          <mxGeometry x="360" y="210" width="60" height="30" as="geometry" />
        </mxCell>
        <mxCell id="yKtc5BlLjvsNmvr8CvIh-16" style="edgeStyle=orthogonalEdgeStyle;rounded=0;orthogonalLoop=1;jettySize=auto;html=1;exitX=0.5;exitY=1;exitDx=0;exitDy=0;" edge="1" parent="1" source="yKtc5BlLjvsNmvr8CvIh-13" target="yKtc5BlLjvsNmvr8CvIh-13">
          <mxGeometry relative="1" as="geometry" />
        </mxCell>
        <mxCell id="yKtc5BlLjvsNmvr8CvIh-18" value="Modulo" style="rounded=0;whiteSpace=wrap;html=1;fillColor=#76608a;fontColor=#ffffff;strokeColor=#432D57;" vertex="1" parent="1">
          <mxGeometry x="600" y="200" width="80" height="60" as="geometry" />
        </mxCell>
        <mxCell id="yKtc5BlLjvsNmvr8CvIh-19" value="cod_modulo" style="ellipse;whiteSpace=wrap;html=1;fillColor=none;strokeColor=#0e8088;" vertex="1" parent="1">
          <mxGeometry x="730" y="150" width="87" height="60" as="geometry" />
        </mxCell>
        <mxCell id="yKtc5BlLjvsNmvr8CvIh-20" value="nom_modulo" style="ellipse;whiteSpace=wrap;html=1;fillColor=none;strokeColor=#0e8088;" vertex="1" parent="1">
          <mxGeometry x="730" y="260" width="87" height="60" as="geometry" />
        </mxCell>
        <mxCell id="yKtc5BlLjvsNmvr8CvIh-24" value="" style="endArrow=none;html=1;rounded=0;exitX=1;exitY=0.5;exitDx=0;exitDy=0;" edge="1" parent="1" source="yKtc5BlLjvsNmvr8CvIh-11">
          <mxGeometry width="50" height="50" relative="1" as="geometry">
            <mxPoint x="550" y="290" as="sourcePoint" />
            <mxPoint x="600" y="240" as="targetPoint" />
          </mxGeometry>
        </mxCell>
        <mxCell id="yKtc5BlLjvsNmvr8CvIh-26" value="" style="endArrow=none;html=1;rounded=0;" edge="1" parent="1" target="yKtc5BlLjvsNmvr8CvIh-19">
          <mxGeometry width="50" height="50" relative="1" as="geometry">
            <mxPoint x="680" y="240" as="sourcePoint" />
            <mxPoint x="730" y="190" as="targetPoint" />
          </mxGeometry>
        </mxCell>
        <mxCell id="yKtc5BlLjvsNmvr8CvIh-27" value="" style="endArrow=none;html=1;rounded=0;entryX=0;entryY=0.333;entryDx=0;entryDy=0;entryPerimeter=0;" edge="1" parent="1" target="yKtc5BlLjvsNmvr8CvIh-20">
          <mxGeometry width="50" height="50" relative="1" as="geometry">
            <mxPoint x="680" y="240" as="sourcePoint" />
            <mxPoint x="752" y="210" as="targetPoint" />
          </mxGeometry>
        </mxCell>
        <mxCell id="yKtc5BlLjvsNmvr8CvIh-28" value="&amp;nbsp;&amp;nbsp;&amp;nbsp; M" style="text;html=1;align=center;verticalAlign=middle;whiteSpace=wrap;rounded=0;" vertex="1" parent="1">
          <mxGeometry x="550" y="215" width="60" height="30" as="geometry" />
        </mxCell>
        <mxCell id="yKtc5BlLjvsNmvr8CvIh-29" value="&lt;font face=&quot;Verdana&quot; style=&quot;font-size: 24px;&quot;&gt;PFO 1 &lt;/font&gt;" style="text;html=1;align=center;verticalAlign=middle;whiteSpace=wrap;rounded=0;" vertex="1" parent="1">
          <mxGeometry x="340" y="10" width="120" height="120" as="geometry" />
        </mxCell>
        <mxCell id="yKtc5BlLjvsNmvr8CvIh-30" value="Matriculado" style="rhombus;whiteSpace=wrap;html=1;fillColor=none;fontColor=#ffffff;strokeColor=#001DBC;" vertex="1" parent="1">
          <mxGeometry x="590" y="340" width="100" height="80" as="geometry" />
        </mxCell>
        <mxCell id="yKtc5BlLjvsNmvr8CvIh-31" value="" style="endArrow=none;html=1;rounded=0;exitX=0.5;exitY=0;exitDx=0;exitDy=0;" edge="1" parent="1" source="yKtc5BlLjvsNmvr8CvIh-30">
          <mxGeometry width="50" height="50" relative="1" as="geometry">
            <mxPoint x="640" y="330" as="sourcePoint" />
            <mxPoint x="640" y="260" as="targetPoint" />
          </mxGeometry>
        </mxCell>
        <mxCell id="yKtc5BlLjvsNmvr8CvIh-33" value="N" style="text;html=1;align=center;verticalAlign=middle;whiteSpace=wrap;rounded=0;" vertex="1" parent="1">
          <mxGeometry x="620" y="310" width="60" height="30" as="geometry" />
        </mxCell>
        <mxCell id="yKtc5BlLjvsNmvr8CvIh-34" value="Alumno" style="rounded=0;whiteSpace=wrap;html=1;fillColor=#bac8d3;strokeColor=#23445d;" vertex="1" parent="1">
          <mxGeometry x="590" y="480" width="110" height="60" as="geometry" />
        </mxCell>
        <mxCell id="yKtc5BlLjvsNmvr8CvIh-35" value="" style="endArrow=none;html=1;rounded=0;" edge="1" parent="1">
          <mxGeometry width="50" height="50" relative="1" as="geometry">
            <mxPoint x="640" y="480" as="sourcePoint" />
            <mxPoint x="640" y="420" as="targetPoint" />
            <Array as="points" />
          </mxGeometry>
        </mxCell>
        <mxCell id="yKtc5BlLjvsNmvr8CvIh-36" value="Num_expediente" style="ellipse;whiteSpace=wrap;html=1;fillColor=none;strokeColor=#0e8088;" vertex="1" parent="1">
          <mxGeometry x="380" y="360" width="100" height="60" as="geometry" />
        </mxCell>
        <mxCell id="yKtc5BlLjvsNmvr8CvIh-37" value="Nombre" style="ellipse;whiteSpace=wrap;html=1;fillColor=none;strokeColor=#0e8088;" vertex="1" parent="1">
          <mxGeometry x="380" y="440" width="100" height="60" as="geometry" />
        </mxCell>
        <mxCell id="yKtc5BlLjvsNmvr8CvIh-38" value="Apellido" style="ellipse;whiteSpace=wrap;html=1;fillColor=none;strokeColor=#0e8088;" vertex="1" parent="1">
          <mxGeometry x="380" y="520" width="100" height="60" as="geometry" />
        </mxCell>
        <mxCell id="yKtc5BlLjvsNmvr8CvIh-39" value="Fecha_nac" style="ellipse;whiteSpace=wrap;html=1;fillColor=none;strokeColor=#0e8088;" vertex="1" parent="1">
          <mxGeometry x="380" y="600" width="100" height="60" as="geometry" />
        </mxCell>
        <mxCell id="yKtc5BlLjvsNmvr8CvIh-40" value="" style="endArrow=none;html=1;rounded=0;entryX=0;entryY=0.5;entryDx=0;entryDy=0;" edge="1" parent="1" target="yKtc5BlLjvsNmvr8CvIh-34">
          <mxGeometry width="50" height="50" relative="1" as="geometry">
            <mxPoint x="480" y="620" as="sourcePoint" />
            <mxPoint x="530" y="570" as="targetPoint" />
          </mxGeometry>
        </mxCell>
        <mxCell id="yKtc5BlLjvsNmvr8CvIh-41" value="" style="endArrow=none;html=1;rounded=0;" edge="1" parent="1">
          <mxGeometry width="50" height="50" relative="1" as="geometry">
            <mxPoint x="480" y="550" as="sourcePoint" />
            <mxPoint x="590" y="510" as="targetPoint" />
          </mxGeometry>
        </mxCell>
        <mxCell id="yKtc5BlLjvsNmvr8CvIh-42" value="" style="endArrow=none;html=1;rounded=0;entryX=0;entryY=0.5;entryDx=0;entryDy=0;" edge="1" parent="1" target="yKtc5BlLjvsNmvr8CvIh-34">
          <mxGeometry width="50" height="50" relative="1" as="geometry">
            <mxPoint x="480" y="470" as="sourcePoint" />
            <mxPoint x="530" y="420" as="targetPoint" />
          </mxGeometry>
        </mxCell>
        <mxCell id="yKtc5BlLjvsNmvr8CvIh-43" value="" style="endArrow=none;html=1;rounded=0;exitX=1;exitY=0.5;exitDx=0;exitDy=0;entryX=0;entryY=0.5;entryDx=0;entryDy=0;" edge="1" parent="1" source="yKtc5BlLjvsNmvr8CvIh-36" target="yKtc5BlLjvsNmvr8CvIh-34">
          <mxGeometry width="50" height="50" relative="1" as="geometry">
            <mxPoint x="500" y="530" as="sourcePoint" />
            <mxPoint x="550" y="480" as="targetPoint" />
          </mxGeometry>
        </mxCell>
        <mxCell id="yKtc5BlLjvsNmvr8CvIh-44" value="1" style="text;html=1;align=center;verticalAlign=middle;whiteSpace=wrap;rounded=0;" vertex="1" parent="1">
          <mxGeometry x="620" y="410" width="60" height="30" as="geometry" />
        </mxCell>
        <mxCell id="yKtc5BlLjvsNmvr8CvIh-47" value="M" style="text;html=1;align=center;verticalAlign=middle;whiteSpace=wrap;rounded=0;" vertex="1" parent="1">
          <mxGeometry x="620" y="450" width="60" height="30" as="geometry" />
        </mxCell>
        <mxCell id="yKtc5BlLjvsNmvr8CvIh-48" value="Delegado" style="rhombus;whiteSpace=wrap;html=1;fillColor=none;fontColor=#ffffff;strokeColor=#001DBC;" vertex="1" parent="1">
          <mxGeometry x="580" y="600" width="120" height="80" as="geometry" />
        </mxCell>
        <mxCell id="yKtc5BlLjvsNmvr8CvIh-49" value="" style="endArrow=none;html=1;rounded=0;exitX=0.5;exitY=0;exitDx=0;exitDy=0;" edge="1" parent="1" source="yKtc5BlLjvsNmvr8CvIh-48">
          <mxGeometry width="50" height="50" relative="1" as="geometry">
            <mxPoint x="590" y="590" as="sourcePoint" />
            <mxPoint x="640" y="540" as="targetPoint" />
          </mxGeometry>
        </mxCell>
        <mxCell id="yKtc5BlLjvsNmvr8CvIh-50" value="M" style="text;html=1;align=center;verticalAlign=middle;whiteSpace=wrap;rounded=0;" vertex="1" parent="1">
          <mxGeometry x="630" y="540" width="60" height="30" as="geometry" />
        </mxCell>
        <mxCell id="yKtc5BlLjvsNmvr8CvIh-51" value="" style="endArrow=none;html=1;rounded=0;entryX=1;entryY=0.5;entryDx=0;entryDy=0;startArrow=ERone;startFill=0;" edge="1" parent="1" target="yKtc5BlLjvsNmvr8CvIh-48">
          <mxGeometry width="50" height="50" relative="1" as="geometry">
            <mxPoint x="700" y="520" as="sourcePoint" />
            <mxPoint x="701.98" y="399" as="targetPoint" />
            <Array as="points">
              <mxPoint x="760" y="520" />
              <mxPoint x="760" y="640" />
            </Array>
          </mxGeometry>
        </mxCell>
        <mxCell id="yKtc5BlLjvsNmvr8CvIh-80" value="" style="shape=table;startSize=0;container=1;collapsible=0;childLayout=tableLayout;" vertex="1" parent="1">
          <mxGeometry x="75" y="720" width="90" height="240" as="geometry" />
        </mxCell>
        <mxCell id="yKtc5BlLjvsNmvr8CvIh-81" value="" style="shape=tableRow;horizontal=0;startSize=0;swimlaneHead=0;swimlaneBody=0;strokeColor=inherit;top=0;left=0;bottom=0;right=0;collapsible=0;dropTarget=0;fillColor=none;points=[[0,0.5],[1,0.5]];portConstraint=eastwest;" vertex="1" parent="yKtc5BlLjvsNmvr8CvIh-80">
          <mxGeometry width="90" height="40" as="geometry" />
        </mxCell>
        <mxCell id="yKtc5BlLjvsNmvr8CvIh-82" value="&lt;b&gt;Modulo&lt;/b&gt;" style="shape=partialRectangle;html=1;whiteSpace=wrap;connectable=0;strokeColor=#006EAF;overflow=hidden;fillColor=#1ba1e2;top=0;left=0;bottom=0;right=0;pointerEvents=1;fontColor=#ffffff;" vertex="1" parent="yKtc5BlLjvsNmvr8CvIh-81">
          <mxGeometry width="90" height="40" as="geometry">
            <mxRectangle width="90" height="40" as="alternateBounds" />
          </mxGeometry>
        </mxCell>
        <mxCell id="yKtc5BlLjvsNmvr8CvIh-83" value="" style="shape=tableRow;horizontal=0;startSize=0;swimlaneHead=0;swimlaneBody=0;strokeColor=inherit;top=0;left=0;bottom=0;right=0;collapsible=0;dropTarget=0;fillColor=none;points=[[0,0.5],[1,0.5]];portConstraint=eastwest;" vertex="1" parent="yKtc5BlLjvsNmvr8CvIh-80">
          <mxGeometry y="40" width="90" height="40" as="geometry" />
        </mxCell>
        <mxCell id="yKtc5BlLjvsNmvr8CvIh-84" value="1" style="shape=partialRectangle;html=1;whiteSpace=wrap;connectable=0;strokeColor=#10739e;overflow=hidden;fillColor=#b1ddf0;top=0;left=0;bottom=0;right=0;pointerEvents=1;" vertex="1" parent="yKtc5BlLjvsNmvr8CvIh-83">
          <mxGeometry width="90" height="40" as="geometry">
            <mxRectangle width="90" height="40" as="alternateBounds" />
          </mxGeometry>
        </mxCell>
        <mxCell id="yKtc5BlLjvsNmvr8CvIh-85" value="" style="shape=tableRow;horizontal=0;startSize=0;swimlaneHead=0;swimlaneBody=0;strokeColor=inherit;top=0;left=0;bottom=0;right=0;collapsible=0;dropTarget=0;fillColor=none;points=[[0,0.5],[1,0.5]];portConstraint=eastwest;" vertex="1" parent="yKtc5BlLjvsNmvr8CvIh-80">
          <mxGeometry y="80" width="90" height="40" as="geometry" />
        </mxCell>
        <mxCell id="yKtc5BlLjvsNmvr8CvIh-86" value="2" style="shape=partialRectangle;html=1;whiteSpace=wrap;connectable=0;strokeColor=#23445d;overflow=hidden;fillColor=#bac8d3;top=0;left=0;bottom=0;right=0;pointerEvents=1;" vertex="1" parent="yKtc5BlLjvsNmvr8CvIh-85">
          <mxGeometry width="90" height="40" as="geometry">
            <mxRectangle width="90" height="40" as="alternateBounds" />
          </mxGeometry>
        </mxCell>
        <mxCell id="yKtc5BlLjvsNmvr8CvIh-87" value="" style="shape=tableRow;horizontal=0;startSize=0;swimlaneHead=0;swimlaneBody=0;strokeColor=inherit;top=0;left=0;bottom=0;right=0;collapsible=0;dropTarget=0;fillColor=none;points=[[0,0.5],[1,0.5]];portConstraint=eastwest;" vertex="1" parent="yKtc5BlLjvsNmvr8CvIh-80">
          <mxGeometry y="120" width="90" height="40" as="geometry" />
        </mxCell>
        <mxCell id="yKtc5BlLjvsNmvr8CvIh-88" value="3" style="shape=partialRectangle;html=1;whiteSpace=wrap;connectable=0;strokeColor=#10739e;overflow=hidden;fillColor=#b1ddf0;top=0;left=0;bottom=0;right=0;pointerEvents=1;" vertex="1" parent="yKtc5BlLjvsNmvr8CvIh-87">
          <mxGeometry width="90" height="40" as="geometry">
            <mxRectangle width="90" height="40" as="alternateBounds" />
          </mxGeometry>
        </mxCell>
        <mxCell id="yKtc5BlLjvsNmvr8CvIh-89" value="" style="shape=tableRow;horizontal=0;startSize=0;swimlaneHead=0;swimlaneBody=0;strokeColor=inherit;top=0;left=0;bottom=0;right=0;collapsible=0;dropTarget=0;fillColor=none;points=[[0,0.5],[1,0.5]];portConstraint=eastwest;" vertex="1" parent="yKtc5BlLjvsNmvr8CvIh-80">
          <mxGeometry y="160" width="90" height="40" as="geometry" />
        </mxCell>
        <mxCell id="yKtc5BlLjvsNmvr8CvIh-90" value="4" style="shape=partialRectangle;html=1;whiteSpace=wrap;connectable=0;strokeColor=#23445d;overflow=hidden;fillColor=#bac8d3;top=0;left=0;bottom=0;right=0;pointerEvents=1;" vertex="1" parent="yKtc5BlLjvsNmvr8CvIh-89">
          <mxGeometry width="90" height="40" as="geometry">
            <mxRectangle width="90" height="40" as="alternateBounds" />
          </mxGeometry>
        </mxCell>
        <mxCell id="yKtc5BlLjvsNmvr8CvIh-91" value="" style="shape=tableRow;horizontal=0;startSize=0;swimlaneHead=0;swimlaneBody=0;strokeColor=inherit;top=0;left=0;bottom=0;right=0;collapsible=0;dropTarget=0;fillColor=none;points=[[0,0.5],[1,0.5]];portConstraint=eastwest;" vertex="1" parent="yKtc5BlLjvsNmvr8CvIh-80">
          <mxGeometry y="200" width="90" height="40" as="geometry" />
        </mxCell>
        <mxCell id="yKtc5BlLjvsNmvr8CvIh-92" value="5" style="shape=partialRectangle;html=1;whiteSpace=wrap;connectable=0;strokeColor=#10739e;overflow=hidden;fillColor=#b1ddf0;top=0;left=0;bottom=0;right=0;pointerEvents=1;" vertex="1" parent="yKtc5BlLjvsNmvr8CvIh-91">
          <mxGeometry width="90" height="40" as="geometry">
            <mxRectangle width="90" height="40" as="alternateBounds" />
          </mxGeometry>
        </mxCell>
        <mxCell id="yKtc5BlLjvsNmvr8CvIh-93" value="" style="shape=table;startSize=0;container=1;collapsible=0;childLayout=tableLayout;fillColor=#1ba1e2;fontColor=#ffffff;strokeColor=#006EAF;" vertex="1" parent="1">
          <mxGeometry x="320" y="720" width="80" height="240" as="geometry" />
        </mxCell>
        <mxCell id="yKtc5BlLjvsNmvr8CvIh-94" value="" style="shape=tableRow;horizontal=0;startSize=0;swimlaneHead=0;swimlaneBody=0;strokeColor=inherit;top=0;left=0;bottom=0;right=0;collapsible=0;dropTarget=0;fillColor=none;points=[[0,0.5],[1,0.5]];portConstraint=eastwest;" vertex="1" parent="yKtc5BlLjvsNmvr8CvIh-93">
          <mxGeometry width="80" height="40" as="geometry" />
        </mxCell>
        <mxCell id="yKtc5BlLjvsNmvr8CvIh-95" value="&lt;b&gt;Alumno&lt;/b&gt;" style="shape=partialRectangle;html=1;whiteSpace=wrap;connectable=0;strokeColor=#A50040;overflow=hidden;fillColor=#d80073;top=0;left=0;bottom=0;right=0;pointerEvents=1;fontColor=#ffffff;" vertex="1" parent="yKtc5BlLjvsNmvr8CvIh-94">
          <mxGeometry width="80" height="40" as="geometry">
            <mxRectangle width="80" height="40" as="alternateBounds" />
          </mxGeometry>
        </mxCell>
        <mxCell id="yKtc5BlLjvsNmvr8CvIh-96" value="" style="shape=tableRow;horizontal=0;startSize=0;swimlaneHead=0;swimlaneBody=0;strokeColor=inherit;top=0;left=0;bottom=0;right=0;collapsible=0;dropTarget=0;fillColor=none;points=[[0,0.5],[1,0.5]];portConstraint=eastwest;" vertex="1" parent="yKtc5BlLjvsNmvr8CvIh-93">
          <mxGeometry y="40" width="80" height="40" as="geometry" />
        </mxCell>
        <mxCell id="yKtc5BlLjvsNmvr8CvIh-97" value="1" style="shape=partialRectangle;html=1;whiteSpace=wrap;connectable=0;strokeColor=#6F0000;overflow=hidden;fillColor=#a20025;top=0;left=0;bottom=0;right=0;pointerEvents=1;fontColor=#ffffff;" vertex="1" parent="yKtc5BlLjvsNmvr8CvIh-96">
          <mxGeometry width="80" height="40" as="geometry">
            <mxRectangle width="80" height="40" as="alternateBounds" />
          </mxGeometry>
        </mxCell>
        <mxCell id="yKtc5BlLjvsNmvr8CvIh-98" value="" style="shape=tableRow;horizontal=0;startSize=0;swimlaneHead=0;swimlaneBody=0;strokeColor=inherit;top=0;left=0;bottom=0;right=0;collapsible=0;dropTarget=0;fillColor=none;points=[[0,0.5],[1,0.5]];portConstraint=eastwest;" vertex="1" parent="yKtc5BlLjvsNmvr8CvIh-93">
          <mxGeometry y="80" width="80" height="40" as="geometry" />
        </mxCell>
        <mxCell id="yKtc5BlLjvsNmvr8CvIh-99" value="2" style="shape=partialRectangle;html=1;whiteSpace=wrap;connectable=0;overflow=hidden;top=0;left=0;bottom=0;right=0;pointerEvents=1;" vertex="1" parent="yKtc5BlLjvsNmvr8CvIh-98">
          <mxGeometry width="80" height="40" as="geometry">
            <mxRectangle width="80" height="40" as="alternateBounds" />
          </mxGeometry>
        </mxCell>
        <mxCell id="yKtc5BlLjvsNmvr8CvIh-100" value="" style="shape=tableRow;horizontal=0;startSize=0;swimlaneHead=0;swimlaneBody=0;strokeColor=inherit;top=0;left=0;bottom=0;right=0;collapsible=0;dropTarget=0;fillColor=none;points=[[0,0.5],[1,0.5]];portConstraint=eastwest;" vertex="1" parent="yKtc5BlLjvsNmvr8CvIh-93">
          <mxGeometry y="120" width="80" height="40" as="geometry" />
        </mxCell>
        <mxCell id="yKtc5BlLjvsNmvr8CvIh-101" value="3" style="shape=partialRectangle;html=1;whiteSpace=wrap;connectable=0;strokeColor=#6F0000;overflow=hidden;fillColor=#a20025;top=0;left=0;bottom=0;right=0;pointerEvents=1;fontColor=#ffffff;" vertex="1" parent="yKtc5BlLjvsNmvr8CvIh-100">
          <mxGeometry width="80" height="40" as="geometry">
            <mxRectangle width="80" height="40" as="alternateBounds" />
          </mxGeometry>
        </mxCell>
        <mxCell id="yKtc5BlLjvsNmvr8CvIh-102" value="" style="shape=tableRow;horizontal=0;startSize=0;swimlaneHead=0;swimlaneBody=0;strokeColor=inherit;top=0;left=0;bottom=0;right=0;collapsible=0;dropTarget=0;fillColor=none;points=[[0,0.5],[1,0.5]];portConstraint=eastwest;" vertex="1" parent="yKtc5BlLjvsNmvr8CvIh-93">
          <mxGeometry y="160" width="80" height="40" as="geometry" />
        </mxCell>
        <mxCell id="yKtc5BlLjvsNmvr8CvIh-103" value="4" style="shape=partialRectangle;html=1;whiteSpace=wrap;connectable=0;overflow=hidden;top=0;left=0;bottom=0;right=0;pointerEvents=1;" vertex="1" parent="yKtc5BlLjvsNmvr8CvIh-102">
          <mxGeometry width="80" height="40" as="geometry">
            <mxRectangle width="80" height="40" as="alternateBounds" />
          </mxGeometry>
        </mxCell>
        <mxCell id="yKtc5BlLjvsNmvr8CvIh-104" value="" style="shape=tableRow;horizontal=0;startSize=0;swimlaneHead=0;swimlaneBody=0;strokeColor=inherit;top=0;left=0;bottom=0;right=0;collapsible=0;dropTarget=0;fillColor=none;points=[[0,0.5],[1,0.5]];portConstraint=eastwest;" vertex="1" parent="yKtc5BlLjvsNmvr8CvIh-93">
          <mxGeometry y="200" width="80" height="40" as="geometry" />
        </mxCell>
        <mxCell id="yKtc5BlLjvsNmvr8CvIh-105" value="5" style="shape=partialRectangle;html=1;whiteSpace=wrap;connectable=0;strokeColor=#6F0000;overflow=hidden;fillColor=#a20025;top=0;left=0;bottom=0;right=0;pointerEvents=1;fontColor=#ffffff;" vertex="1" parent="yKtc5BlLjvsNmvr8CvIh-104">
          <mxGeometry width="80" height="40" as="geometry">
            <mxRectangle width="80" height="40" as="alternateBounds" />
          </mxGeometry>
        </mxCell>
        <mxCell id="yKtc5BlLjvsNmvr8CvIh-106" value="&lt;b&gt;M&lt;/b&gt;" style="text;html=1;align=center;verticalAlign=middle;whiteSpace=wrap;rounded=0;" vertex="1" parent="1">
          <mxGeometry x="90" y="690" width="60" height="30" as="geometry" />
        </mxCell>
        <mxCell id="yKtc5BlLjvsNmvr8CvIh-107" value="&lt;b&gt;N&lt;/b&gt;" style="text;html=1;align=center;verticalAlign=middle;whiteSpace=wrap;rounded=0;" vertex="1" parent="1">
          <mxGeometry x="330" y="690" width="60" height="30" as="geometry" />
        </mxCell>
        <mxCell id="yKtc5BlLjvsNmvr8CvIh-118" value="" style="endArrow=classic;html=1;rounded=0;entryX=0;entryY=0.5;entryDx=0;entryDy=0;" edge="1" parent="1" target="yKtc5BlLjvsNmvr8CvIh-96">
          <mxGeometry width="50" height="50" relative="1" as="geometry">
            <mxPoint x="165" y="780" as="sourcePoint" />
            <mxPoint x="215" y="730" as="targetPoint" />
          </mxGeometry>
        </mxCell>
        <mxCell id="yKtc5BlLjvsNmvr8CvIh-119" value="" style="endArrow=classic;html=1;rounded=0;entryX=0;entryY=0.5;entryDx=0;entryDy=0;" edge="1" parent="1" target="yKtc5BlLjvsNmvr8CvIh-98">
          <mxGeometry width="50" height="50" relative="1" as="geometry">
            <mxPoint x="170" y="790" as="sourcePoint" />
            <mxPoint x="330" y="790" as="targetPoint" />
          </mxGeometry>
        </mxCell>
        <mxCell id="yKtc5BlLjvsNmvr8CvIh-120" value="" style="endArrow=classic;html=1;rounded=0;entryX=-0.037;entryY=0.75;entryDx=0;entryDy=0;entryPerimeter=0;" edge="1" parent="1" target="yKtc5BlLjvsNmvr8CvIh-96">
          <mxGeometry width="50" height="50" relative="1" as="geometry">
            <mxPoint x="165" y="860" as="sourcePoint" />
            <mxPoint x="320" y="860" as="targetPoint" />
          </mxGeometry>
        </mxCell>
        <mxCell id="yKtc5BlLjvsNmvr8CvIh-121" value="" style="endArrow=none;html=1;rounded=0;" edge="1" parent="1">
          <mxGeometry width="50" height="50" relative="1" as="geometry">
            <mxPoint x="285" y="900" as="sourcePoint" />
            <mxPoint x="320" y="900" as="targetPoint" />
          </mxGeometry>
        </mxCell>
        <mxCell id="yKtc5BlLjvsNmvr8CvIh-122" value="" style="endArrow=classic;html=1;rounded=0;entryX=0;entryY=0.5;entryDx=0;entryDy=0;exitX=1;exitY=0.5;exitDx=0;exitDy=0;" edge="1" parent="1" source="yKtc5BlLjvsNmvr8CvIh-85" target="yKtc5BlLjvsNmvr8CvIh-100">
          <mxGeometry width="50" height="50" relative="1" as="geometry">
            <mxPoint x="195" y="810" as="sourcePoint" />
            <mxPoint x="350" y="810" as="targetPoint" />
          </mxGeometry>
        </mxCell>
        <mxCell id="yKtc5BlLjvsNmvr8CvIh-123" value="" style="endArrow=none;html=1;rounded=0;" edge="1" parent="1">
          <mxGeometry width="50" height="50" relative="1" as="geometry">
            <mxPoint x="400" y="900" as="sourcePoint" />
            <mxPoint x="435" y="900" as="targetPoint" />
          </mxGeometry>
        </mxCell>
        <mxCell id="yKtc5BlLjvsNmvr8CvIh-124" value="" style="endArrow=classic;html=1;rounded=0;entryX=-0.025;entryY=0.717;entryDx=0;entryDy=0;entryPerimeter=0;" edge="1" parent="1" target="yKtc5BlLjvsNmvr8CvIh-93">
          <mxGeometry width="50" height="50" relative="1" as="geometry">
            <mxPoint x="170" y="860" as="sourcePoint" />
            <mxPoint x="330" y="870" as="targetPoint" />
          </mxGeometry>
        </mxCell>
        <mxCell id="yKtc5BlLjvsNmvr8CvIh-125" value="" style="shape=table;startSize=0;container=1;collapsible=0;childLayout=tableLayout;fillColor=#6d8764;strokeColor=#3A5431;fontColor=#ffffff;" vertex="1" parent="1">
          <mxGeometry x="520" y="720" width="80" height="240" as="geometry" />
        </mxCell>
        <mxCell id="yKtc5BlLjvsNmvr8CvIh-126" value="" style="shape=tableRow;horizontal=0;startSize=0;swimlaneHead=0;swimlaneBody=0;strokeColor=inherit;top=0;left=0;bottom=0;right=0;collapsible=0;dropTarget=0;fillColor=none;points=[[0,0.5],[1,0.5]];portConstraint=eastwest;" vertex="1" parent="yKtc5BlLjvsNmvr8CvIh-125">
          <mxGeometry width="80" height="40" as="geometry" />
        </mxCell>
        <mxCell id="yKtc5BlLjvsNmvr8CvIh-127" value="Profesor" style="shape=partialRectangle;html=1;whiteSpace=wrap;connectable=0;strokeColor=#2D7600;overflow=hidden;fillColor=#60a917;top=0;left=0;bottom=0;right=0;pointerEvents=1;fontColor=#ffffff;" vertex="1" parent="yKtc5BlLjvsNmvr8CvIh-126">
          <mxGeometry width="80" height="40" as="geometry">
            <mxRectangle width="80" height="40" as="alternateBounds" />
          </mxGeometry>
        </mxCell>
        <mxCell id="yKtc5BlLjvsNmvr8CvIh-128" value="" style="shape=tableRow;horizontal=0;startSize=0;swimlaneHead=0;swimlaneBody=0;strokeColor=inherit;top=0;left=0;bottom=0;right=0;collapsible=0;dropTarget=0;fillColor=none;points=[[0,0.5],[1,0.5]];portConstraint=eastwest;" vertex="1" parent="yKtc5BlLjvsNmvr8CvIh-125">
          <mxGeometry y="40" width="80" height="40" as="geometry" />
        </mxCell>
        <mxCell id="yKtc5BlLjvsNmvr8CvIh-129" value="1" style="shape=partialRectangle;html=1;whiteSpace=wrap;connectable=0;strokeColor=#10739e;overflow=hidden;fillColor=#b1ddf0;top=0;left=0;bottom=0;right=0;pointerEvents=1;" vertex="1" parent="yKtc5BlLjvsNmvr8CvIh-128">
          <mxGeometry width="80" height="40" as="geometry">
            <mxRectangle width="80" height="40" as="alternateBounds" />
          </mxGeometry>
        </mxCell>
        <mxCell id="yKtc5BlLjvsNmvr8CvIh-130" value="" style="shape=tableRow;horizontal=0;startSize=0;swimlaneHead=0;swimlaneBody=0;strokeColor=inherit;top=0;left=0;bottom=0;right=0;collapsible=0;dropTarget=0;fillColor=none;points=[[0,0.5],[1,0.5]];portConstraint=eastwest;" vertex="1" parent="yKtc5BlLjvsNmvr8CvIh-125">
          <mxGeometry y="80" width="80" height="40" as="geometry" />
        </mxCell>
        <mxCell id="yKtc5BlLjvsNmvr8CvIh-131" value="2" style="shape=partialRectangle;html=1;whiteSpace=wrap;connectable=0;strokeColor=#56517e;overflow=hidden;fillColor=#d0cee2;top=0;left=0;bottom=0;right=0;pointerEvents=1;" vertex="1" parent="yKtc5BlLjvsNmvr8CvIh-130">
          <mxGeometry width="80" height="40" as="geometry">
            <mxRectangle width="80" height="40" as="alternateBounds" />
          </mxGeometry>
        </mxCell>
        <mxCell id="yKtc5BlLjvsNmvr8CvIh-132" value="" style="shape=tableRow;horizontal=0;startSize=0;swimlaneHead=0;swimlaneBody=0;strokeColor=inherit;top=0;left=0;bottom=0;right=0;collapsible=0;dropTarget=0;fillColor=none;points=[[0,0.5],[1,0.5]];portConstraint=eastwest;" vertex="1" parent="yKtc5BlLjvsNmvr8CvIh-125">
          <mxGeometry y="120" width="80" height="40" as="geometry" />
        </mxCell>
        <mxCell id="yKtc5BlLjvsNmvr8CvIh-133" value="3" style="shape=partialRectangle;html=1;whiteSpace=wrap;connectable=0;strokeColor=#10739e;overflow=hidden;fillColor=#b1ddf0;top=0;left=0;bottom=0;right=0;pointerEvents=1;" vertex="1" parent="yKtc5BlLjvsNmvr8CvIh-132">
          <mxGeometry width="80" height="40" as="geometry">
            <mxRectangle width="80" height="40" as="alternateBounds" />
          </mxGeometry>
        </mxCell>
        <mxCell id="yKtc5BlLjvsNmvr8CvIh-134" value="" style="shape=tableRow;horizontal=0;startSize=0;swimlaneHead=0;swimlaneBody=0;strokeColor=inherit;top=0;left=0;bottom=0;right=0;collapsible=0;dropTarget=0;fillColor=none;points=[[0,0.5],[1,0.5]];portConstraint=eastwest;" vertex="1" parent="yKtc5BlLjvsNmvr8CvIh-125">
          <mxGeometry y="160" width="80" height="40" as="geometry" />
        </mxCell>
        <mxCell id="yKtc5BlLjvsNmvr8CvIh-135" value="4" style="shape=partialRectangle;html=1;whiteSpace=wrap;connectable=0;strokeColor=#56517e;overflow=hidden;fillColor=#d0cee2;top=0;left=0;bottom=0;right=0;pointerEvents=1;" vertex="1" parent="yKtc5BlLjvsNmvr8CvIh-134">
          <mxGeometry width="80" height="40" as="geometry">
            <mxRectangle width="80" height="40" as="alternateBounds" />
          </mxGeometry>
        </mxCell>
        <mxCell id="yKtc5BlLjvsNmvr8CvIh-136" value="" style="shape=tableRow;horizontal=0;startSize=0;swimlaneHead=0;swimlaneBody=0;strokeColor=inherit;top=0;left=0;bottom=0;right=0;collapsible=0;dropTarget=0;fillColor=none;points=[[0,0.5],[1,0.5]];portConstraint=eastwest;" vertex="1" parent="yKtc5BlLjvsNmvr8CvIh-125">
          <mxGeometry y="200" width="80" height="40" as="geometry" />
        </mxCell>
        <mxCell id="yKtc5BlLjvsNmvr8CvIh-137" value="5" style="shape=partialRectangle;html=1;whiteSpace=wrap;connectable=0;strokeColor=#10739e;overflow=hidden;fillColor=#b1ddf0;top=0;left=0;bottom=0;right=0;pointerEvents=1;" vertex="1" parent="yKtc5BlLjvsNmvr8CvIh-136">
          <mxGeometry width="80" height="40" as="geometry">
            <mxRectangle width="80" height="40" as="alternateBounds" />
          </mxGeometry>
        </mxCell>
        <mxCell id="yKtc5BlLjvsNmvr8CvIh-138" value="&lt;b&gt;1&lt;/b&gt;" style="text;html=1;align=center;verticalAlign=middle;whiteSpace=wrap;rounded=0;" vertex="1" parent="1">
          <mxGeometry x="540" y="690" width="40" height="30" as="geometry" />
        </mxCell>
        <mxCell id="yKtc5BlLjvsNmvr8CvIh-139" value="" style="shape=table;startSize=0;container=1;collapsible=0;childLayout=tableLayout;fillColor=#1ba1e2;fontColor=#ffffff;strokeColor=#006EAF;" vertex="1" parent="1">
          <mxGeometry x="710" y="720" width="80" height="240" as="geometry" />
        </mxCell>
        <mxCell id="yKtc5BlLjvsNmvr8CvIh-140" value="" style="shape=tableRow;horizontal=0;startSize=0;swimlaneHead=0;swimlaneBody=0;strokeColor=inherit;top=0;left=0;bottom=0;right=0;collapsible=0;dropTarget=0;fillColor=none;points=[[0,0.5],[1,0.5]];portConstraint=eastwest;" vertex="1" parent="yKtc5BlLjvsNmvr8CvIh-139">
          <mxGeometry width="80" height="40" as="geometry" />
        </mxCell>
        <mxCell id="yKtc5BlLjvsNmvr8CvIh-141" value="&lt;b&gt;Modulo&lt;/b&gt;" style="shape=partialRectangle;html=1;whiteSpace=wrap;connectable=0;strokeColor=#A50040;overflow=hidden;fillColor=#d80073;top=0;left=0;bottom=0;right=0;pointerEvents=1;fontColor=#ffffff;" vertex="1" parent="yKtc5BlLjvsNmvr8CvIh-140">
          <mxGeometry width="80" height="40" as="geometry">
            <mxRectangle width="80" height="40" as="alternateBounds" />
          </mxGeometry>
        </mxCell>
        <mxCell id="yKtc5BlLjvsNmvr8CvIh-142" value="" style="shape=tableRow;horizontal=0;startSize=0;swimlaneHead=0;swimlaneBody=0;strokeColor=inherit;top=0;left=0;bottom=0;right=0;collapsible=0;dropTarget=0;fillColor=none;points=[[0,0.5],[1,0.5]];portConstraint=eastwest;" vertex="1" parent="yKtc5BlLjvsNmvr8CvIh-139">
          <mxGeometry y="40" width="80" height="40" as="geometry" />
        </mxCell>
        <mxCell id="yKtc5BlLjvsNmvr8CvIh-143" value="1" style="shape=partialRectangle;html=1;whiteSpace=wrap;connectable=0;strokeColor=#6F0000;overflow=hidden;fillColor=#a20025;top=0;left=0;bottom=0;right=0;pointerEvents=1;fontColor=#ffffff;" vertex="1" parent="yKtc5BlLjvsNmvr8CvIh-142">
          <mxGeometry width="80" height="40" as="geometry">
            <mxRectangle width="80" height="40" as="alternateBounds" />
          </mxGeometry>
        </mxCell>
        <mxCell id="yKtc5BlLjvsNmvr8CvIh-144" value="" style="shape=tableRow;horizontal=0;startSize=0;swimlaneHead=0;swimlaneBody=0;strokeColor=inherit;top=0;left=0;bottom=0;right=0;collapsible=0;dropTarget=0;fillColor=none;points=[[0,0.5],[1,0.5]];portConstraint=eastwest;" vertex="1" parent="yKtc5BlLjvsNmvr8CvIh-139">
          <mxGeometry y="80" width="80" height="40" as="geometry" />
        </mxCell>
        <mxCell id="yKtc5BlLjvsNmvr8CvIh-145" value="2" style="shape=partialRectangle;html=1;whiteSpace=wrap;connectable=0;overflow=hidden;top=0;left=0;bottom=0;right=0;pointerEvents=1;" vertex="1" parent="yKtc5BlLjvsNmvr8CvIh-144">
          <mxGeometry width="80" height="40" as="geometry">
            <mxRectangle width="80" height="40" as="alternateBounds" />
          </mxGeometry>
        </mxCell>
        <mxCell id="yKtc5BlLjvsNmvr8CvIh-146" value="" style="shape=tableRow;horizontal=0;startSize=0;swimlaneHead=0;swimlaneBody=0;strokeColor=inherit;top=0;left=0;bottom=0;right=0;collapsible=0;dropTarget=0;fillColor=none;points=[[0,0.5],[1,0.5]];portConstraint=eastwest;" vertex="1" parent="yKtc5BlLjvsNmvr8CvIh-139">
          <mxGeometry y="120" width="80" height="40" as="geometry" />
        </mxCell>
        <mxCell id="yKtc5BlLjvsNmvr8CvIh-147" value="3" style="shape=partialRectangle;html=1;whiteSpace=wrap;connectable=0;strokeColor=#6F0000;overflow=hidden;fillColor=#a20025;top=0;left=0;bottom=0;right=0;pointerEvents=1;fontColor=#ffffff;" vertex="1" parent="yKtc5BlLjvsNmvr8CvIh-146">
          <mxGeometry width="80" height="40" as="geometry">
            <mxRectangle width="80" height="40" as="alternateBounds" />
          </mxGeometry>
        </mxCell>
        <mxCell id="yKtc5BlLjvsNmvr8CvIh-148" value="" style="shape=tableRow;horizontal=0;startSize=0;swimlaneHead=0;swimlaneBody=0;strokeColor=inherit;top=0;left=0;bottom=0;right=0;collapsible=0;dropTarget=0;fillColor=none;points=[[0,0.5],[1,0.5]];portConstraint=eastwest;" vertex="1" parent="yKtc5BlLjvsNmvr8CvIh-139">
          <mxGeometry y="160" width="80" height="40" as="geometry" />
        </mxCell>
        <mxCell id="yKtc5BlLjvsNmvr8CvIh-149" value="4" style="shape=partialRectangle;html=1;whiteSpace=wrap;connectable=0;overflow=hidden;top=0;left=0;bottom=0;right=0;pointerEvents=1;" vertex="1" parent="yKtc5BlLjvsNmvr8CvIh-148">
          <mxGeometry width="80" height="40" as="geometry">
            <mxRectangle width="80" height="40" as="alternateBounds" />
          </mxGeometry>
        </mxCell>
        <mxCell id="yKtc5BlLjvsNmvr8CvIh-150" value="" style="shape=tableRow;horizontal=0;startSize=0;swimlaneHead=0;swimlaneBody=0;strokeColor=inherit;top=0;left=0;bottom=0;right=0;collapsible=0;dropTarget=0;fillColor=none;points=[[0,0.5],[1,0.5]];portConstraint=eastwest;" vertex="1" parent="yKtc5BlLjvsNmvr8CvIh-139">
          <mxGeometry y="200" width="80" height="40" as="geometry" />
        </mxCell>
        <mxCell id="yKtc5BlLjvsNmvr8CvIh-151" value="5" style="shape=partialRectangle;html=1;whiteSpace=wrap;connectable=0;strokeColor=#6F0000;overflow=hidden;fillColor=#a20025;top=0;left=0;bottom=0;right=0;pointerEvents=1;fontColor=#ffffff;" vertex="1" parent="yKtc5BlLjvsNmvr8CvIh-150">
          <mxGeometry width="80" height="40" as="geometry">
            <mxRectangle width="80" height="40" as="alternateBounds" />
          </mxGeometry>
        </mxCell>
        <mxCell id="yKtc5BlLjvsNmvr8CvIh-152" value="&lt;b&gt;N&lt;/b&gt;" style="text;html=1;align=center;verticalAlign=middle;whiteSpace=wrap;rounded=0;" vertex="1" parent="1">
          <mxGeometry x="730" y="690" width="40" height="30" as="geometry" />
        </mxCell>
        <mxCell id="yKtc5BlLjvsNmvr8CvIh-153" value="" style="endArrow=classic;html=1;rounded=0;entryX=0;entryY=0.25;entryDx=0;entryDy=0;" edge="1" parent="1" target="yKtc5BlLjvsNmvr8CvIh-139">
          <mxGeometry width="50" height="50" relative="1" as="geometry">
            <mxPoint x="600" y="790" as="sourcePoint" />
            <mxPoint x="650" y="740" as="targetPoint" />
          </mxGeometry>
        </mxCell>
        <mxCell id="yKtc5BlLjvsNmvr8CvIh-155" value="" style="endArrow=classic;html=1;rounded=0;entryX=0;entryY=0.5;entryDx=0;entryDy=0;" edge="1" parent="1" target="yKtc5BlLjvsNmvr8CvIh-144">
          <mxGeometry width="50" height="50" relative="1" as="geometry">
            <mxPoint x="600" y="820" as="sourcePoint" />
            <mxPoint x="710" y="810" as="targetPoint" />
            <Array as="points">
              <mxPoint x="670" y="820" />
            </Array>
          </mxGeometry>
        </mxCell>
        <mxCell id="yKtc5BlLjvsNmvr8CvIh-156" value="" style="endArrow=classic;html=1;rounded=0;entryX=-0.037;entryY=0.8;entryDx=0;entryDy=0;entryPerimeter=0;" edge="1" parent="1" target="yKtc5BlLjvsNmvr8CvIh-144">
          <mxGeometry width="50" height="50" relative="1" as="geometry">
            <mxPoint x="605" y="860" as="sourcePoint" />
            <mxPoint x="715" y="850" as="targetPoint" />
          </mxGeometry>
        </mxCell>
        <mxCell id="yKtc5BlLjvsNmvr8CvIh-157" value="" style="endArrow=classic;html=1;rounded=0;entryX=0;entryY=0.25;entryDx=0;entryDy=0;" edge="1" parent="1">
          <mxGeometry width="50" height="50" relative="1" as="geometry">
            <mxPoint x="600" y="910" as="sourcePoint" />
            <mxPoint x="710" y="900" as="targetPoint" />
          </mxGeometry>
        </mxCell>
      </root>
    </mxGraphModel>
  </diagram>
</mxfile>
